<?xml version="1.0" encoding="utf-8"?>
<!-- Generator: Adobe Illustrator 23.0.1, SVG Export Plug-In . SVG Version: 6.00 Build 0)  -->
<svg version="1.1" id="Calque_1" xmlns="http://www.w3.org/2000/svg" xmlns:xlink="http://www.w3.org/1999/xlink" x="0px" y="0px"
	 viewBox="0 0 20 20" style="enable-background:new 0 0 20 20;" xml:space="preserve">
<style type="text/css">
	.st0{fill:#B7B7B7;}
</style>
<path class="st0" d="M8.6,3L8,5.1L6.8,5.8L4.6,5.3L3.2,7.7l1.6,1.7v1.4l-1.6,1.7l1.4,2.3l2.2-0.5L8,14.9L8.6,17h2.8l0.7-2.1l1.1-0.7
	l2.2,0.5l1.4-2.3l-1.5-1.7V9.3l1.5-1.7l-1.4-2.3l-2.2,0.5l-1.1-0.7L11.4,3H8.6z M10,7.5c1.4,0,2.5,1.1,2.5,2.5s-1.1,2.5-2.5,2.5
	S7.5,11.4,7.5,10S8.6,7.5,10,7.5z"/>
</svg>
